<mxfile host="app.diagrams.net" modified="2022-11-27T11:05:08.537Z" agent="5.0 (Macintosh; Intel Mac OS X 10_15_7) AppleWebKit/537.36 (KHTML, like Gecko) Chrome/107.0.0.0 Safari/537.36" etag="cU_TTbkeZzowDNPwKBqc" version="20.5.3" type="github">
  <diagram id="WFCBDOZfwYFQQmERSjPU" name="Page-1">
    <mxGraphModel dx="1475" dy="983" grid="1" gridSize="10" guides="1" tooltips="1" connect="1" arrows="1" fold="1" page="1" pageScale="1" pageWidth="1600" pageHeight="1100" math="0" shadow="0">
      <root>
        <mxCell id="0" />
        <mxCell id="1" parent="0" />
        <mxCell id="W-YmilSlrOzLhQI1WWJP-1" value="&lt;font style=&quot;font-size: 15px;&quot;&gt;Z&lt;sub&gt;i,t&lt;/sub&gt;&amp;nbsp;~ Bernoulli(&lt;span style=&quot;color: rgb(51, 51, 51); background-color: rgb(255, 255, 255);&quot;&gt;ψ&lt;sub style=&quot;&quot;&gt;i,t&lt;/sub&gt;)&lt;/span&gt;&lt;/font&gt;" style="rounded=0;whiteSpace=wrap;html=1;" vertex="1" parent="1">
          <mxGeometry x="380" y="590" width="120" height="60" as="geometry" />
        </mxCell>
        <mxCell id="W-YmilSlrOzLhQI1WWJP-2" value="&lt;span style=&quot;color: rgb(51, 51, 51); font-size: 16.8px; background-color: rgb(255, 255, 255);&quot;&gt;ψ&lt;/span&gt;&lt;span style=&quot;color: rgb(51, 51, 51); font-size: 16.8px; background-color: rgb(255, 255, 255);&quot;&gt;&lt;sub&gt;i,t =&lt;/sub&gt;&amp;nbsp;&lt;/span&gt;&lt;font color=&quot;#333333&quot;&gt;&lt;span style=&quot;font-size: 16.8px;&quot;&gt;(1 - z&lt;sub&gt;i,t-1&lt;/sub&gt;)&lt;/span&gt;&lt;/font&gt;&lt;span style=&quot;background-color: rgb(255, 255, 255); color: rgb(51, 51, 51); font-size: 16.8px;&quot;&gt;γ&lt;/span&gt;&lt;span style=&quot;background-color: rgb(255, 255, 255); color: rgb(51, 51, 51); font-size: 14px;&quot;&gt;&lt;sub&gt;i,t-1&lt;/sub&gt;&lt;/span&gt;&lt;span style=&quot;box-sizing: border-box; transition: none 0s ease 0s; position: absolute; border: 0px; padding: 0px; margin: 0px; vertical-align: 0px; line-height: normal; color: rgb(51, 51, 51); font-family: &amp;quot;Source Sans Pro&amp;quot;, Calibri, Candara, Arial, sans-serif; font-size: 16.8px; background-color: rgb(255, 255, 255); clip: rect(3.396em, 1000.42em, 4.348em, -999.997em); top: -3.985em; left: 0em;&quot;&gt;&lt;span style=&quot;box-sizing: border-box; transition: none 0s ease 0s; display: inline; position: static; border: 0px; padding: 0px; margin: 0px; vertical-align: 0px; line-height: normal; font-family: STIXGeneral-Italic;&quot; id=&quot;MathJax-Span-507&quot; class=&quot;mi&quot;&gt;&lt;span style=&quot;box-sizing: border-box; transition: none 0s ease 0s; display: inline-block; position: static; border: 0px; padding: 0px; margin: 0px; vertical-align: 0px; line-height: normal; overflow: hidden; height: 1px; width: 0.003em;&quot;&gt;&lt;/span&gt;&lt;/span&gt;&lt;span style=&quot;box-sizing: border-box; transition: none 0s ease 0s; display: inline-block; position: static; border: 0px; padding: 0px; margin: 0px; vertical-align: 0px; line-height: normal; width: 0px; height: 3.991em;&quot;&gt;&lt;br&gt;&lt;/span&gt;&lt;/span&gt;&lt;span style=&quot;box-sizing: border-box; transition: none 0s ease 0s; position: absolute; border: 0px; padding: 0px; margin: 0px; vertical-align: 0px; line-height: normal; color: rgb(51, 51, 51); font-family: &amp;quot;Source Sans Pro&amp;quot;, Calibri, Candara, Arial, sans-serif; font-size: 16.8px; background-color: rgb(255, 255, 255); clip: rect(3.396em, 1000.42em, 4.348em, -999.997em); top: -3.985em; left: 0em;&quot;&gt;&lt;span style=&quot;box-sizing: border-box; transition: none 0s ease 0s; display: inline; position: static; border: 0px; padding: 0px; margin: 0px; vertical-align: 0px; line-height: normal; font-family: STIXGeneral-Italic;&quot; id=&quot;MathJax-Span-507&quot; class=&quot;mi&quot;&gt;&lt;span style=&quot;box-sizing: border-box; transition: none 0s ease 0s; display: inline-block; position: static; border: 0px; padding: 0px; margin: 0px; vertical-align: 0px; line-height: normal; overflow: hidden; height: 1px; width: 0.003em;&quot;&gt;&lt;/span&gt;&lt;/span&gt;&lt;span style=&quot;box-sizing: border-box; transition: none 0s ease 0s; display: inline-block; position: static; border: 0px; padding: 0px; margin: 0px; vertical-align: 0px; line-height: normal; width: 0px; height: 3.991em;&quot;&gt;&lt;br&gt;&lt;/span&gt;&lt;/span&gt;&lt;font color=&quot;#333333&quot;&gt;&lt;span style=&quot;font-size: 16.8px;&quot;&gt;&lt;br&gt;+ z&lt;sub&gt;i,t-1&lt;/sub&gt;(1-&lt;/span&gt;&lt;/font&gt;&lt;span style=&quot;color: rgb(51, 51, 51); font-size: 16.8px; background-color: rgb(255, 255, 255);&quot;&gt;ε&lt;sub&gt;i,t-1&lt;/sub&gt;&lt;/span&gt;&lt;font color=&quot;#333333&quot;&gt;&lt;span style=&quot;font-size: 16.8px;&quot;&gt;)&lt;/span&gt;&lt;/font&gt;" style="rounded=0;whiteSpace=wrap;html=1;fontFamily=Helvetica;fontSize=15;" vertex="1" parent="1">
          <mxGeometry x="320" y="490" width="230" height="60" as="geometry" />
        </mxCell>
        <mxCell id="W-YmilSlrOzLhQI1WWJP-3" value="" style="endArrow=classic;html=1;rounded=0;fontFamily=Helvetica;fontSize=15;entryX=0.356;entryY=-0.011;entryDx=0;entryDy=0;exitX=0.443;exitY=0.998;exitDx=0;exitDy=0;exitPerimeter=0;entryPerimeter=0;" edge="1" parent="1" source="W-YmilSlrOzLhQI1WWJP-2" target="W-YmilSlrOzLhQI1WWJP-1">
          <mxGeometry width="50" height="50" relative="1" as="geometry">
            <mxPoint x="440" y="550" as="sourcePoint" />
            <mxPoint x="540" y="510" as="targetPoint" />
          </mxGeometry>
        </mxCell>
        <mxCell id="W-YmilSlrOzLhQI1WWJP-4" value="&lt;font style=&quot;font-size: 16px;&quot;&gt;&lt;span style=&quot;background-color: rgb(255, 255, 255); color: rgb(51, 51, 51);&quot;&gt;logit(γ&lt;/span&gt;&lt;span style=&quot;background-color: rgb(255, 255, 255); color: rgb(51, 51, 51);&quot;&gt;&lt;sub&gt;i,t&lt;/sub&gt;&amp;nbsp;)= a&lt;/span&gt;&lt;span style=&quot;background-color: rgb(255, 255, 255); color: rgb(51, 51, 51);&quot;&gt;&lt;sub style=&quot;&quot;&gt;0,t&lt;/sub&gt;+a&lt;sub style=&quot;&quot;&gt;1,t&lt;/sub&gt;Connectivity&lt;sub&gt;i&lt;/sub&gt;&lt;/span&gt;&lt;/font&gt;" style="rounded=0;whiteSpace=wrap;html=1;fontFamily=Helvetica;fontSize=15;" vertex="1" parent="1">
          <mxGeometry x="460" y="370" width="150" height="60" as="geometry" />
        </mxCell>
        <mxCell id="W-YmilSlrOzLhQI1WWJP-5" value="&lt;font style=&quot;font-size: 16px;&quot;&gt;&lt;span style=&quot;background-color: rgb(255, 255, 255); color: rgb(51, 51, 51);&quot;&gt;logit(&lt;/span&gt;&lt;span style=&quot;color: rgb(51, 51, 51); font-size: 16.8px; background-color: rgb(255, 255, 255);&quot;&gt;ε&lt;/span&gt;&lt;sub style=&quot;color: rgb(51, 51, 51);&quot;&gt;i,t&lt;/sub&gt;&lt;span style=&quot;background-color: rgb(255, 255, 255); color: rgb(51, 51, 51);&quot;&gt;)= b&lt;/span&gt;&lt;span style=&quot;background-color: rgb(255, 255, 255); color: rgb(51, 51, 51);&quot;&gt;&lt;sub style=&quot;&quot;&gt;0,t&lt;/sub&gt;+b&lt;sub style=&quot;&quot;&gt;1,t&lt;/sub&gt;Length&lt;sub&gt;i&lt;/sub&gt;&lt;/span&gt;&lt;/font&gt;" style="rounded=0;whiteSpace=wrap;html=1;fontFamily=Helvetica;fontSize=15;" vertex="1" parent="1">
          <mxGeometry x="240" y="370" width="150" height="60" as="geometry" />
        </mxCell>
        <mxCell id="W-YmilSlrOzLhQI1WWJP-6" value="" style="endArrow=classic;html=1;rounded=0;fontFamily=Helvetica;fontSize=16;exitX=0.75;exitY=1;exitDx=0;exitDy=0;entryX=0.14;entryY=-0.003;entryDx=0;entryDy=0;entryPerimeter=0;" edge="1" parent="1" source="W-YmilSlrOzLhQI1WWJP-5" target="W-YmilSlrOzLhQI1WWJP-2">
          <mxGeometry width="50" height="50" relative="1" as="geometry">
            <mxPoint x="280" y="490" as="sourcePoint" />
            <mxPoint x="330" y="440" as="targetPoint" />
          </mxGeometry>
        </mxCell>
        <mxCell id="W-YmilSlrOzLhQI1WWJP-7" value="" style="endArrow=classic;html=1;rounded=0;fontFamily=Helvetica;fontSize=16;entryX=0.773;entryY=-0.032;entryDx=0;entryDy=0;entryPerimeter=0;exitX=0.25;exitY=1;exitDx=0;exitDy=0;" edge="1" parent="1" source="W-YmilSlrOzLhQI1WWJP-4" target="W-YmilSlrOzLhQI1WWJP-2">
          <mxGeometry width="50" height="50" relative="1" as="geometry">
            <mxPoint x="300" y="450" as="sourcePoint" />
            <mxPoint x="350" y="400" as="targetPoint" />
          </mxGeometry>
        </mxCell>
        <mxCell id="W-YmilSlrOzLhQI1WWJP-8" value="Y&lt;sub&gt;i,t&lt;/sub&gt;&amp;nbsp;~ Binom(p&lt;sub&gt;i,t&lt;/sub&gt;&amp;nbsp;+Z&lt;sub&gt;i,t&amp;nbsp;&lt;/sub&gt;, J&lt;sub&gt;i,t&lt;/sub&gt;)" style="rounded=0;whiteSpace=wrap;html=1;fontFamily=Helvetica;fontSize=16;" vertex="1" parent="1">
          <mxGeometry x="425" y="710" width="220" height="60" as="geometry" />
        </mxCell>
        <mxCell id="W-YmilSlrOzLhQI1WWJP-9" value="" style="endArrow=classic;html=1;rounded=0;fontFamily=Helvetica;fontSize=16;exitX=0.5;exitY=1;exitDx=0;exitDy=0;entryX=0.067;entryY=0.004;entryDx=0;entryDy=0;entryPerimeter=0;" edge="1" parent="1" source="W-YmilSlrOzLhQI1WWJP-1" target="W-YmilSlrOzLhQI1WWJP-8">
          <mxGeometry width="50" height="50" relative="1" as="geometry">
            <mxPoint x="400" y="630" as="sourcePoint" />
            <mxPoint x="450" y="580" as="targetPoint" />
          </mxGeometry>
        </mxCell>
        <mxCell id="W-YmilSlrOzLhQI1WWJP-10" value="logit(p&lt;sub&gt;i,t&lt;/sub&gt;&amp;nbsp;) = q&lt;sub&gt;i,t&lt;/sub&gt;" style="rounded=0;whiteSpace=wrap;html=1;fontFamily=Helvetica;fontSize=16;" vertex="1" parent="1">
          <mxGeometry x="570" y="590" width="120" height="60" as="geometry" />
        </mxCell>
        <mxCell id="W-YmilSlrOzLhQI1WWJP-11" value="q&lt;sub&gt;i,t&lt;/sub&gt;&amp;nbsp;~ Norm(&lt;span style=&quot;background-color: rgb(255, 255, 255); color: rgb(51, 51, 51); font-size: 16.8px;&quot;&gt;μ&lt;sub&gt;p&lt;/sub&gt;,&amp;nbsp;&lt;/span&gt;&lt;span style=&quot;color: rgb(51, 51, 51); font-size: 16.8px; background-color: rgb(255, 255, 255);&quot;&gt;σ&lt;sub&gt;p&lt;/sub&gt;&lt;sup&gt;2&lt;/sup&gt;)&lt;/span&gt;&lt;span style=&quot;box-sizing: border-box; transition: none 0s ease 0s; position: absolute; border: 0px; padding: 0px; margin: 0px; vertical-align: 0px; line-height: normal; color: rgb(51, 51, 51); font-family: &amp;quot;Source Sans Pro&amp;quot;, Calibri, Candara, Arial, sans-serif; font-size: 16.8px; background-color: rgb(255, 255, 255); clip: rect(3.396em, 1000.48em, 4.348em, -999.997em); top: -3.985em; left: 0em;&quot;&gt;&lt;span style=&quot;box-sizing: border-box; transition: none 0s ease 0s; display: inline-block; position: static; border: 0px; padding: 0px; margin: 0px; vertical-align: 0px; line-height: normal; width: 0px; height: 3.991em;&quot;&gt;&lt;/span&gt;&lt;/span&gt;" style="rounded=0;whiteSpace=wrap;html=1;fontFamily=Helvetica;fontSize=16;" vertex="1" parent="1">
          <mxGeometry x="600" y="490" width="150" height="60" as="geometry" />
        </mxCell>
        <mxCell id="W-YmilSlrOzLhQI1WWJP-14" value="" style="endArrow=classic;html=1;rounded=0;fontFamily=Helvetica;fontSize=16;exitX=0.5;exitY=1;exitDx=0;exitDy=0;entryX=0.864;entryY=-0.011;entryDx=0;entryDy=0;entryPerimeter=0;" edge="1" parent="1" source="W-YmilSlrOzLhQI1WWJP-11" target="W-YmilSlrOzLhQI1WWJP-10">
          <mxGeometry width="50" height="50" relative="1" as="geometry">
            <mxPoint x="570" y="610" as="sourcePoint" />
            <mxPoint x="620" y="560" as="targetPoint" />
          </mxGeometry>
        </mxCell>
        <mxCell id="W-YmilSlrOzLhQI1WWJP-15" value="" style="endArrow=classic;html=1;rounded=0;fontFamily=Helvetica;fontSize=16;exitX=0.5;exitY=1;exitDx=0;exitDy=0;entryX=0.935;entryY=-0.028;entryDx=0;entryDy=0;entryPerimeter=0;" edge="1" parent="1" source="W-YmilSlrOzLhQI1WWJP-10" target="W-YmilSlrOzLhQI1WWJP-8">
          <mxGeometry width="50" height="50" relative="1" as="geometry">
            <mxPoint x="710" y="740" as="sourcePoint" />
            <mxPoint x="760" y="690" as="targetPoint" />
          </mxGeometry>
        </mxCell>
        <mxCell id="W-YmilSlrOzLhQI1WWJP-16" value="" style="endArrow=none;dashed=1;html=1;rounded=0;fontFamily=Helvetica;fontSize=16;" edge="1" parent="1">
          <mxGeometry width="50" height="50" relative="1" as="geometry">
            <mxPoint x="10" y="340" as="sourcePoint" />
            <mxPoint x="1020" y="340" as="targetPoint" />
          </mxGeometry>
        </mxCell>
        <mxCell id="W-YmilSlrOzLhQI1WWJP-18" value="&lt;span style=&quot;color: rgb(0, 0, 0); font-family: Helvetica; font-size: 16px; font-style: normal; font-variant-ligatures: normal; font-variant-caps: normal; font-weight: 400; letter-spacing: normal; orphans: 2; text-align: center; text-indent: 0px; text-transform: none; widows: 2; word-spacing: 0px; -webkit-text-stroke-width: 0px; background-color: rgb(248, 249, 250); text-decoration-thickness: initial; text-decoration-style: initial; text-decoration-color: initial; float: none; display: inline !important;&quot;&gt;a&lt;/span&gt;&lt;sub style=&quot;color: rgb(0, 0, 0); font-family: Helvetica; font-style: normal; font-variant-ligatures: normal; font-variant-caps: normal; font-weight: 400; letter-spacing: normal; orphans: 2; text-align: center; text-indent: 0px; text-transform: none; widows: 2; word-spacing: 0px; -webkit-text-stroke-width: 0px; background-color: rgb(248, 249, 250); text-decoration-thickness: initial; text-decoration-style: initial; text-decoration-color: initial;&quot;&gt;j,t&amp;nbsp;&lt;/sub&gt;&lt;span style=&quot;color: rgb(0, 0, 0); font-family: Helvetica; font-size: 16px; font-style: normal; font-variant-ligatures: normal; font-variant-caps: normal; font-weight: 400; letter-spacing: normal; orphans: 2; text-align: center; text-indent: 0px; text-transform: none; widows: 2; word-spacing: 0px; -webkit-text-stroke-width: 0px; background-color: rgb(248, 249, 250); text-decoration-thickness: initial; text-decoration-style: initial; text-decoration-color: initial; float: none; display: inline !important;&quot;&gt;, b&lt;/span&gt;&lt;sub style=&quot;color: rgb(0, 0, 0); font-family: Helvetica; font-style: normal; font-variant-ligatures: normal; font-variant-caps: normal; font-weight: 400; letter-spacing: normal; orphans: 2; text-align: center; text-indent: 0px; text-transform: none; widows: 2; word-spacing: 0px; -webkit-text-stroke-width: 0px; background-color: rgb(248, 249, 250); text-decoration-thickness: initial; text-decoration-style: initial; text-decoration-color: initial;&quot;&gt;j,t&amp;nbsp;&lt;/sub&gt;&lt;span style=&quot;color: rgb(0, 0, 0); font-family: Helvetica; font-size: 16px; font-style: normal; font-variant-ligatures: normal; font-variant-caps: normal; font-weight: 400; letter-spacing: normal; orphans: 2; text-align: center; text-indent: 0px; text-transform: none; widows: 2; word-spacing: 0px; -webkit-text-stroke-width: 0px; background-color: rgb(248, 249, 250); text-decoration-thickness: initial; text-decoration-style: initial; text-decoration-color: initial; float: none; display: inline !important;&quot;&gt;~ Unif(-10, 10)&lt;/span&gt;" style="rounded=0;whiteSpace=wrap;html=1;fontFamily=Helvetica;fontSize=16;" vertex="1" parent="1">
          <mxGeometry x="320" y="230" width="200" height="50" as="geometry" />
        </mxCell>
        <mxCell id="W-YmilSlrOzLhQI1WWJP-19" value="" style="endArrow=classic;html=1;rounded=0;fontFamily=Helvetica;fontSize=16;exitX=0.157;exitY=1.002;exitDx=0;exitDy=0;entryX=0.75;entryY=0;entryDx=0;entryDy=0;exitPerimeter=0;" edge="1" parent="1" source="W-YmilSlrOzLhQI1WWJP-18" target="W-YmilSlrOzLhQI1WWJP-5">
          <mxGeometry width="50" height="50" relative="1" as="geometry">
            <mxPoint x="370" y="320" as="sourcePoint" />
            <mxPoint x="420" y="270" as="targetPoint" />
          </mxGeometry>
        </mxCell>
        <mxCell id="W-YmilSlrOzLhQI1WWJP-20" value="" style="endArrow=classic;html=1;rounded=0;fontFamily=Helvetica;fontSize=16;exitX=0.75;exitY=1;exitDx=0;exitDy=0;entryX=0.066;entryY=0.005;entryDx=0;entryDy=0;entryPerimeter=0;" edge="1" parent="1" source="W-YmilSlrOzLhQI1WWJP-18" target="W-YmilSlrOzLhQI1WWJP-4">
          <mxGeometry width="50" height="50" relative="1" as="geometry">
            <mxPoint x="590" y="320" as="sourcePoint" />
            <mxPoint x="640" y="270" as="targetPoint" />
            <Array as="points">
              <mxPoint x="470" y="320" />
            </Array>
          </mxGeometry>
        </mxCell>
        <mxCell id="W-YmilSlrOzLhQI1WWJP-21" value="&lt;span style=&quot;color: rgb(51, 51, 51); font-size: 16.8px; background-color: rgb(255, 255, 255);&quot;&gt;μ&lt;/span&gt;&lt;sub style=&quot;color: rgb(51, 51, 51);&quot;&gt;p &lt;/sub&gt;&lt;span style=&quot;color: rgb(51, 51, 51);&quot;&gt;~&amp;nbsp;&lt;/span&gt;&lt;sub style=&quot;color: rgb(51, 51, 51);&quot;&gt;&amp;nbsp;&lt;/sub&gt;&lt;span style=&quot;color: rgb(51, 51, 51);&quot;&gt;Norm(0,100),&lt;br&gt;&lt;/span&gt;&lt;span style=&quot;color: rgb(51, 51, 51); font-size: 16.8px; background-color: rgb(255, 255, 255);&quot;&gt;σ&lt;/span&gt;&lt;sub style=&quot;color: rgb(51, 51, 51);&quot;&gt;p &lt;/sub&gt;&lt;span style=&quot;color: rgb(51, 51, 51);&quot;&gt;~ Unif(0,10)&lt;/span&gt;&lt;span style=&quot;color: rgb(51, 51, 51);&quot;&gt;&lt;br&gt;&lt;/span&gt;" style="rounded=0;whiteSpace=wrap;html=1;fontFamily=Helvetica;fontSize=16;" vertex="1" parent="1">
          <mxGeometry x="620" y="230" width="180" height="60" as="geometry" />
        </mxCell>
        <mxCell id="W-YmilSlrOzLhQI1WWJP-22" value="" style="endArrow=classic;html=1;rounded=0;fontFamily=Helvetica;fontSize=16;exitX=0.5;exitY=1;exitDx=0;exitDy=0;entryX=0.738;entryY=-0.019;entryDx=0;entryDy=0;entryPerimeter=0;" edge="1" parent="1" source="W-YmilSlrOzLhQI1WWJP-21" target="W-YmilSlrOzLhQI1WWJP-11">
          <mxGeometry width="50" height="50" relative="1" as="geometry">
            <mxPoint x="670" y="480" as="sourcePoint" />
            <mxPoint x="810" y="430" as="targetPoint" />
          </mxGeometry>
        </mxCell>
        <mxCell id="W-YmilSlrOzLhQI1WWJP-23" value="&lt;span style=&quot;color: rgb(51, 51, 51); font-size: 16.8px; background-color: rgb(255, 255, 255);&quot;&gt;ψ&lt;/span&gt;&lt;span style=&quot;color: rgb(51, 51, 51); font-size: 16.8px; background-color: rgb(255, 255, 255);&quot;&gt;&lt;sub&gt;i,1&amp;nbsp;&lt;/sub&gt;~ Unif(-10,10)&lt;/span&gt;" style="rounded=0;whiteSpace=wrap;html=1;fontFamily=Helvetica;fontSize=16;" vertex="1" parent="1">
          <mxGeometry x="80" y="230" width="150" height="60" as="geometry" />
        </mxCell>
        <mxCell id="W-YmilSlrOzLhQI1WWJP-24" value="" style="endArrow=classic;html=1;rounded=0;fontFamily=Helvetica;fontSize=16;exitX=0.5;exitY=1;exitDx=0;exitDy=0;entryX=0;entryY=0.5;entryDx=0;entryDy=0;" edge="1" parent="1" source="W-YmilSlrOzLhQI1WWJP-23" target="W-YmilSlrOzLhQI1WWJP-2">
          <mxGeometry width="50" height="50" relative="1" as="geometry">
            <mxPoint x="150" y="620" as="sourcePoint" />
            <mxPoint x="200" y="570" as="targetPoint" />
            <Array as="points">
              <mxPoint x="155" y="520" />
            </Array>
          </mxGeometry>
        </mxCell>
        <mxCell id="W-YmilSlrOzLhQI1WWJP-25" value="PRIORS" style="text;html=1;align=center;verticalAlign=middle;resizable=0;points=[];autosize=1;strokeColor=none;fillColor=none;fontSize=16;fontFamily=Helvetica;" vertex="1" parent="1">
          <mxGeometry x="90" y="175" width="80" height="30" as="geometry" />
        </mxCell>
      </root>
    </mxGraphModel>
  </diagram>
</mxfile>
